<svg width="18" height="18" viewBox="0 0 18 18" fill="none" xmlns="http://www.w3.org/2000/svg">
<path d="M9.05889 3.94472C7.79034 3.94472 6.75781 4.97724 6.75781 6.24579C6.75781 7.51434 7.79034 8.54687 9.05889 8.54687C10.3274 8.54687 11.36 7.51434 11.36 6.24579C11.36 4.97724 10.3274 3.94472 9.05889 3.94472ZM9.05889 7.88942C8.15259 7.88942 7.41526 7.15209 7.41526 6.24579C7.41526 5.3395 8.15259 4.60217 9.05889 4.60217C9.96518 4.60217 10.7025 5.3395 10.7025 6.24579C10.7025 7.15209 9.96518 7.88942 9.05889 7.88942Z" fill="black"/>
<path d="M13.4579 1.84645C12.2673 0.655807 10.6841 0 9.0004 0C7.31634 0 5.73353 0.655807 4.54289 1.84645C2.33944 4.04956 2.06561 8.19479 3.94986 10.7062L9.0004 18L14.0434 10.7164C15.9352 8.19479 15.6614 4.04956 13.4579 1.84645ZM13.5102 10.3322L9.0004 16.8449L4.48339 10.322C2.77434 8.04325 3.01924 4.29972 5.00803 2.31127C6.07442 1.24488 7.49221 0.65745 9.0004 0.65745C10.5086 0.65745 11.9264 1.24488 12.9931 2.31127C14.9819 4.29972 15.2268 8.04325 13.5102 10.3322Z" fill="black"/>
</svg>
