<svg width="16" height="16" viewBox="0 0 16 16" fill="none" xmlns="http://www.w3.org/2000/svg">
<path d="M12.9549 11.0977C12.8914 11.0977 12.828 11.0745 12.7784 11.0276L9.80977 8.24257C9.70607 8.14557 9.70091 7.98202 9.79842 7.87832C9.89593 7.77359 10.0585 7.76895 10.1632 7.86697L13.1318 10.652C13.2355 10.749 13.2407 10.9125 13.1432 11.0162C13.0921 11.0704 13.024 11.0977 12.9549 11.0977Z" fill="black"/>
<path d="M3.04533 11.0983C2.97671 11.0983 2.90809 11.071 2.85702 11.0168C2.75951 10.9131 2.76466 10.7496 2.86837 10.6526L5.83806 7.86757C5.94227 7.77058 6.10582 7.77471 6.20282 7.87893C6.30033 7.98263 6.29517 8.14618 6.19147 8.24317L3.22178 11.0282C3.17225 11.0751 3.10879 11.0983 3.04533 11.0983Z" fill="black"/>
<path d="M14.7102 13.6871H1.28982C0.578873 13.6871 0 13.1087 0 12.3973V3.60223C0 2.89077 0.578873 2.31241 1.28982 2.31241H14.7102C15.4211 2.31241 16 2.89077 16 3.60223V12.3973C16 13.1087 15.4211 13.6871 14.7102 13.6871ZM1.28982 2.82834C0.86315 2.82834 0.515929 3.17556 0.515929 3.60223V12.3973C0.515929 12.824 0.86315 13.1712 1.28982 13.1712H14.7102C15.1369 13.1712 15.4841 12.824 15.4841 12.3973V3.60223C15.4841 3.17556 15.1369 2.82834 14.7102 2.82834H1.28982Z" fill="black"/>
<path d="M8.00015 9.29596C7.65706 9.29596 7.31396 9.18194 7.0529 8.95441L0.428371 3.17548C0.321058 3.0821 0.309707 2.91907 0.403091 2.81124C0.497506 2.70392 0.660023 2.69412 0.767337 2.78647L7.39187 8.56488C7.72155 8.85226 8.27875 8.85226 8.60791 8.56488L15.2242 2.79576C15.331 2.70238 15.4935 2.71269 15.5884 2.82052C15.6818 2.92835 15.671 3.09087 15.5637 3.18477L8.9474 8.95389C8.68582 9.18193 8.34324 9.29596 8.00015 9.29596Z" fill="black"/>
</svg>
