<svg width="16" height="16" viewBox="0 0 16 16" fill="none" xmlns="http://www.w3.org/2000/svg">
<g clip-path="url(#clip0)">
<path d="M12.8585 16C12.1928 16 11.3888 15.8332 10.5046 15.4995C8.56611 14.7687 6.45707 13.3243 4.56598 11.4332C2.67435 9.54158 1.22993 7.432 0.498571 5.49355C-0.166055 3.73108 -0.167669 2.28451 0.494804 1.62257C0.590058 1.52732 0.686927 1.42507 0.787025 1.31959C1.39138 0.684024 2.0743 -0.0311892 2.97948 0.00110036C3.60321 0.026932 4.20756 0.414406 4.82644 1.18451C6.65511 3.45877 5.83065 4.26924 4.87649 5.20886L4.70805 5.37569C4.55198 5.53176 4.25707 6.25451 7.00061 8.99804C7.8961 9.89354 8.65975 10.549 9.27002 10.9456C9.65427 11.1953 10.3415 11.5731 10.6235 11.2911L10.793 11.12C11.7316 10.168 12.542 9.34623 14.8147 11.1733C15.5848 11.7922 15.9717 12.396 15.9975 13.0208C16.0347 13.9254 15.3141 14.61 14.678 15.2138C14.573 15.3139 14.4708 15.4107 14.3755 15.5055C14.0467 15.8348 13.5209 16 12.8585 16ZM2.9149 0.538183C2.2718 0.538183 1.69113 1.14953 1.17719 1.69038C1.07386 1.79909 0.973766 1.90457 0.875283 2.00305C0.381791 2.49601 0.43184 3.79135 1.00229 5.30412C1.70728 7.17261 3.1081 9.21438 4.94699 11.0533C6.78534 12.8911 8.82604 14.2919 10.6951 14.9964C12.2078 15.5679 13.5032 15.6163 13.9956 15.1239C14.0941 15.0254 14.1996 14.9253 14.3083 14.8225C14.861 14.2973 15.4879 13.7021 15.4605 13.0418C15.4416 12.5881 15.1112 12.1 14.4783 11.5914C12.5845 10.0684 12.055 10.6061 11.1767 11.4967L11.0045 11.6705C10.5847 12.0908 9.9029 11.9977 8.97726 11.3961C8.33524 10.9785 7.54199 10.2993 6.62067 9.37744C4.34372 7.10103 3.61559 5.70774 4.32811 4.9936L4.49978 4.82408C5.39259 3.94581 5.93128 3.41572 4.40776 1.52086C3.89812 0.888524 3.41055 0.558095 2.95688 0.538721C2.94289 0.538183 2.9289 0.538183 2.9149 0.538183Z" fill="black"/>
</g>
<defs>
<clipPath id="clip0">
<rect width="16" height="16" fill="white"/>
</clipPath>
</defs>
</svg>
